<?xml version="1.0" encoding="UTF-8"?>
<svg version="1.1" xmlns="http://www.w3.org/2000/svg" width="500" height="500">
<path d="M0 0 C5.90470983 0.1180942 10.51228196 2.25829223 15 6 C15 6.66 15 7.32 15 8 C15.66 8 16.32 8 17 8 C18.76868872 16.92205199 15.35595956 22.68834955 10.98779297 30.10546875 C6.8309142 37.16879499 3.66138927 44.22813674 1 52 C0.75830078 52.70189453 0.51660156 53.40378906 0.26757812 54.12695312 C-8.83397175 81.14791807 -13.72587968 109.48905922 -13 138 C-11.865625 137.5875 -10.73125 137.175 -9.5625 136.75 C9.32809374 130.53135734 29.03091508 127.7603789 48.875 127.6875 C50.50586548 127.67928223 50.50586548 127.67928223 52.16967773 127.67089844 C60.23072125 127.74371839 68.11175966 128.40783977 75 133 C78.22784776 136.99435514 80 139.78806642 80 145 C78.39125 145.2165625 78.39125 145.2165625 76.75 145.4375 C72.62550196 146.05617471 69.67665729 146.66983939 65.92578125 148.5 C61.70423615 150.32361122 57.73848712 150.51448167 53.1875 150.625 C47.93304196 150.57613342 47.93304196 150.57613342 43 152 C40.62687814 152.15666086 38.2512172 152.27579411 35.875 152.375 C30.9231894 152.64172107 26.67794746 153.1444737 22.13671875 155.18359375 C19.23180506 156.29351507 16.29810891 156.82920782 13.25 157.4375 C6.61445056 158.80281028 0.34851553 160.64681691 -6 163 C-6.98742187 163.35835937 -7.97484375 163.71671875 -8.9921875 164.0859375 C-18.04040487 167.58771513 -26.27157418 172.48304381 -33.4375 179.0625 C-36 181 -36 181 -38.390625 180.92578125 C-41.82632028 179.70682948 -43.10303178 177.9960604 -45.3125 175.125 C-46.00988281 174.24070312 -46.70726562 173.35640625 -47.42578125 172.4453125 C-49 170 -49 170 -49 167 C-49.66 167 -50.32 167 -51 167 C-51.25 160.375 -51.25 160.375 -49 157 C-48.34 157 -47.68 157 -47 157 C-47 156.34 -47 155.68 -47 155 C-45.37430407 153.93468759 -43.69772551 152.94631173 -42 152 C-41.14019531 151.47019531 -40.28039062 150.94039062 -39.39453125 150.39453125 C-38.11642578 149.61142578 -38.11642578 149.61142578 -36.8125 148.8125 C-35.95269531 148.28269531 -35.09289062 147.75289062 -34.20703125 147.20703125 C-32 146 -32 146 -30 146 C-30.78375 145.21625 -31.5675 144.4325 -32.375 143.625 C-38.92784125 137.07215875 -39.20236398 130.54276952 -39.25 121.375 C-39.05138297 100.33105241 -35.84607451 80.44195492 -31 60 C-34.465 60.495 -34.465 60.495 -38 61 C-39.125 56.25 -39.125 56.25 -38 54 C-37.34 54 -36.68 54 -36 54 C-36 53.34 -36 52.68 -36 52 C-35.195625 51.360625 -34.39125 50.72125 -33.5625 50.0625 C-30.76279268 48.18964068 -30.76279268 48.18964068 -30 45 C-29.34 45 -28.68 45 -28 45 C-28 44.34 -28 43.68 -28 43 C-27.34 43 -26.68 43 -26 43 C-25.773125 42.484375 -25.54625 41.96875 -25.3125 41.4375 C-23.5024447 38.07596873 -21.26003596 35.07088856 -19 32 C-20.27875 31.979375 -21.5575 31.95875 -22.875 31.9375 C-23.59429687 31.92589844 -24.31359375 31.91429687 -25.0546875 31.90234375 C-27.08185404 31.87350758 -27.08185404 31.87350758 -29 33 C-30.7867163 33.30176981 -32.57987691 33.56561289 -34.375 33.8125 C-50.1281062 36.1553593 -65.71168901 39.5409093 -81 44 C-82.33220631 44.33780946 -83.66532403 44.67208392 -85 45 C-86.14411181 49.2162498 -87.2833069 53.43378778 -88.41796875 57.65258789 C-88.80464039 59.08752245 -89.19265212 60.5220966 -89.58203125 61.95629883 C-90.1415532 64.01810868 -90.69623959 66.08116756 -91.25 68.14453125 C-91.58515625 69.38565674 -91.9203125 70.62678223 -92.265625 71.90551758 C-93.1154522 74.95641674 -93.1154522 74.95641674 -93 78 C-92.28457031 77.87882812 -91.56914062 77.75765625 -90.83203125 77.6328125 C-87.55577666 77.08182531 -84.2779439 76.54084247 -81 76 C-79.87464844 75.80921875 -78.74929687 75.6184375 -77.58984375 75.421875 C-61.69931857 72.81991766 -61.69931857 72.81991766 -57.75 75.5625 C-53.91060393 80.91023023 -51.55506804 85.65013883 -50 92 C-53.33745878 96.11282799 -56.09781911 96.71998855 -61.25 97.5 C-62.6881909 97.73540044 -64.12568153 97.97511278 -65.5625 98.21875 C-66.29726562 98.3425 -67.03203125 98.46625 -67.7890625 98.59375 C-71.31559711 99.24173516 -74.77847916 100.10775529 -78.25 101 C-79.2409668 101.25281738 -79.2409668 101.25281738 -80.25195312 101.51074219 C-83.34742119 102.30535837 -86.43905775 103.11462127 -89.53125 103.921875 C-91.12453125 104.33179688 -91.12453125 104.33179688 -92.75 104.75 C-94.13445312 105.11351562 -94.13445312 105.11351562 -95.546875 105.484375 C-98 106 -98 106 -102 106 C-103.83926945 116.2911505 -105.29681477 126.40118607 -105.3125 136.875 C-105.31765625 137.69967773 -105.3228125 138.52435547 -105.328125 139.37402344 C-105.27515322 143.96175834 -104.74120616 147.68513851 -103 152 C-92.94024957 152.87476091 -84.76632921 147.59791353 -76.75 142.0625 C-75.986875 141.55009766 -75.22375 141.03769531 -74.4375 140.50976562 C-71.04872825 138.21065927 -67.77969407 135.87612213 -64.671875 133.20703125 C-62 131 -62 131 -58.5 129.625 C-54.54486228 127.78868606 -52.84014469 125.83778051 -50.26171875 122.42578125 C-49.84535156 121.95527344 -49.42898437 121.48476563 -49 121 C-48.34 121 -47.68 121 -47 121 C-46.505 119.515 -46.505 119.515 -46 118 C-44.68 118 -43.36 118 -42 118 C-42.53115106 122.51478398 -44.36620292 125.34666857 -47 129 C-46.649375 129.495 -46.29875 129.99 -45.9375 130.5 C-44.23045763 135.05211299 -45.49246937 139.56697233 -47.0625 144 C-47.5265625 144.99 -47.5265625 144.99 -48 146 C-48.66 146 -49.32 146 -50 146 C-50.26296875 146.57492187 -50.5259375 147.14984375 -50.796875 147.7421875 C-57.09377262 159.55909277 -71.71583286 169.27532033 -84 174 C-91.5260846 175.91236576 -100.81790135 176.38901635 -108.03125 173.1796875 C-117.63234172 167.42665238 -127.5560742 158.95399928 -131 148 C-131.41665418 144.56877495 -131.55997167 141.1401897 -131.6875 137.6875 C-131.7294751 136.71143799 -131.7714502 135.73537598 -131.81469727 134.72973633 C-132.02670956 128.83540829 -131.93161561 123.06262031 -131.4375 117.1875 C-131.01614467 112.02589722 -131.13219069 107.86793109 -132.5 102.890625 C-133.32420878 99.77408554 -133.43691782 97.18325842 -133 94 C-130.625 91.5625 -130.625 91.5625 -128 90 C-127.34 90 -126.68 90 -126 90 C-125.76925781 88.86304688 -125.53851563 87.72609375 -125.30078125 86.5546875 C-123.44858748 77.69536443 -121.28414231 69.28911578 -118.05078125 60.8203125 C-117.20293317 58.54467566 -116.52022109 56.36672013 -116 54 C-116.61488281 54.11859375 -117.22976562 54.2371875 -117.86328125 54.359375 C-120.28240276 54.7451998 -122.54915846 55.03482546 -125 55 C-128.20178819 52.19843534 -128.92808705 48.97023543 -129.23828125 44.78515625 C-129.26277344 43.55667969 -129.28726563 42.32820313 -129.3125 41.0625 C-129.34988281 39.83660156 -129.38726562 38.61070312 -129.42578125 37.34765625 C-129 34 -129 34 -127.203125 31.6875 C-120.84541739 26.81776651 -113.70063874 24.86853734 -106 23 C-105.87882812 22.01257813 -105.75765625 21.02515625 -105.6328125 20.0078125 C-105.46523437 18.72648437 -105.29765625 17.44515625 -105.125 16.125 C-104.96257812 14.84882813 -104.80015625 13.57265625 -104.6328125 12.2578125 C-104 9 -104 9 -102 7 C-95.7473449 6.21841811 -90.53457665 8.10692584 -85 11 C-83.203125 12.51171875 -83.203125 12.51171875 -82 14 C-82 14.66 -82 15.32 -82 16 C-80.29069188 15.71410149 -78.58259088 15.42098242 -76.875 15.125 C-75.92367187 14.96257812 -74.97234375 14.80015625 -73.9921875 14.6328125 C-70.99743857 14.06457978 -70.99743857 14.06457978 -68.19458008 13.02734375 C-62.85427684 11.30995773 -57.35088493 10.68637489 -51.8125 9.875 C-50.64396484 9.69324219 -49.47542969 9.51148438 -48.27148438 9.32421875 C-28.5738126 6.40197631 -28.5738126 6.40197631 -23.0625 10.375 C-19.25286946 14.18463054 -17.6073956 18.94818527 -16 24 C-15.01 22.515 -15.01 22.515 -14 21 C-13.34 21 -12.68 21 -12 21 C-11.88785156 20.28457031 -11.77570313 19.56914062 -11.66015625 18.83203125 C-10.95543995 15.80884002 -9.86712202 13.43677312 -8.4375 10.6875 C-7.98246094 9.80449219 -7.52742188 8.92148438 -7.05859375 8.01171875 C-6.53458984 7.01591797 -6.53458984 7.01591797 -6 6 C-5.34 6 -4.68 6 -4 6 C-3.71125 5.38125 -3.4225 4.7625 -3.125 4.125 C-2 2 -2 2 0 0 Z " fill="#CDCDCD" transform="translate(282,160)"/>
<path d="M0 0 C0.99 0 1.98 0 3 0 C2.46734625 3.79353403 1.6515932 7.45247593 0.6953125 11.15625 C-4.28104511 30.96482091 -5.80262628 50.66573866 -7 71 C-7.99 71 -8.98 71 -10 71 C-10.66 71.99 -11.32 72.98 -12 74 C-12.57952368 50.30392071 -9.45948449 28.02947173 -4 5 C-3.31292445 7.49064888 -3 9.37886292 -3 12 C-1.19682779 8.03302114 -0.50797009 4.3177458 0 0 Z " fill="#9D9B9C" transform="translate(255,215)"/>
<path d="M0 0 C1.32 0 2.64 0 4 0 C3.46884894 4.51478398 1.63379708 7.34666857 -1 11 C-0.649375 11.495 -0.29875 11.99 0.0625 12.5 C1.76954237 17.05211299 0.50753063 21.56697233 -1.0625 26 C-1.371875 26.66 -1.68125 27.32 -2 28 C-2.66 28 -3.32 28 -4 28 C-4.25523437 28.57234375 -4.51046875 29.1446875 -4.7734375 29.734375 C-6.13087159 32.24173733 -7.71974104 34.1330456 -9.625 36.25 C-10.25664062 36.95640625 -10.88828125 37.6628125 -11.5390625 38.390625 C-12.02117187 38.92171875 -12.50328125 39.4528125 -13 40 C-13.33 39.34 -13.66 38.68 -14 38 C-14.66 37.67 -15.32 37.34 -16 37 C-15.67 36.4225 -15.34 35.845 -15 35.25 C-13.72924102 32.80116138 -13.72924102 32.80116138 -14 29 C-14.99 29.66 -15.98 30.32 -17 31 C-17 32.32 -17 33.64 -17 35 C-18.485 35.495 -18.485 35.495 -20 36 C-20.66 34.35 -21.32 32.7 -22 31 C-18.21243523 27.38860104 -18.21243523 27.38860104 -16 26 C-13.125 26.1875 -13.125 26.1875 -11 27 C-10.67 26.34 -10.34 25.68 -10 25 C-8.68 25.33 -7.36 25.66 -6 26 C-6.79117904 24.00016466 -6.79117904 24.00016466 -8 22 C-8.99 21.67 -9.98 21.34 -11 21 C-9.68 19.35 -8.36 17.7 -7 16 C-7.99 16.33 -8.98 16.66 -10 17 C-10 15.66666667 -10 14.33333333 -10 13 C-10.66 12.67 -11.32 12.34 -12 12 C-11.43410156 11.51789063 -10.86820313 11.03578125 -10.28515625 10.5390625 C-9.18494141 9.59160156 -9.18494141 9.59160156 -8.0625 8.625 C-7.33160156 7.99851562 -6.60070312 7.37203125 -5.84765625 6.7265625 C-3.91619094 5.12252286 -3.91619094 5.12252286 -3 3 C-2.34 3 -1.68 3 -1 3 C-0.67 2.01 -0.34 1.02 0 0 Z " fill="#C5C4C4" transform="translate(236,278)"/>
<path d="M0 0 C0 0.66 0 1.32 0 2 C-0.99 2 -1.98 2 -3 2 C-3 2.99 -3 3.98 -3 5 C1.29 5.33 5.58 5.66 10 6 C10 6.33 10 6.66 10 7 C8.94039062 7.14695313 8.94039062 7.14695313 7.859375 7.296875 C0.73757952 8.33472459 -6.31671279 9.59770851 -13.375 11 C-14.21836914 11.1659668 -15.06173828 11.33193359 -15.93066406 11.50292969 C-19.63865122 12.24980957 -23.28961617 13.04412658 -26.91796875 14.1171875 C-29.79930041 14.94251191 -32.02760906 15.18014491 -35 15 C-33.68 14.67 -32.36 14.34 -31 14 C-31.33 13.01 -31.66 12.02 -32 11 C-31.34 10.01 -30.68 9.02 -30 8 C-31.5159375 8.495 -31.5159375 8.495 -33.0625 9 C-36.75479911 10.07001321 -40.15248207 10.15704155 -44 10 C-35.82883607 4.55255738 -23.31063587 3.59183569 -13.75 1.75 C-12.84523926 1.57484863 -11.94047852 1.39969727 -11.00830078 1.21923828 C-10.15478027 1.0592334 -9.30125977 0.89922852 -8.421875 0.734375 C-7.28637207 0.52119629 -7.28637207 0.52119629 -6.12792969 0.30371094 C-4 0 -4 0 0 0 Z " fill="#AFAEAD" transform="translate(243,186)"/>
<path d="M0 0 C3 3 3 3 4 6 C3.66640744 8.34665114 3.23494005 10.67989468 2.75 13 C2.61158691 13.66773438 2.47317383 14.33546875 2.33056641 15.0234375 C1.28778232 19.94396445 0.00974726 24.77672293 -1.37109375 29.61328125 C-2.19362027 32.73479493 -2.64384177 35.79457596 -3 39 C-3.66 39 -4.32 39 -5 39 C-5.33 39.99 -5.66 40.98 -6 42 C-6.66 42.66 -7.32 43.32 -8 44 C-8.50866669 41.64741656 -9.0070625 39.29338596 -9.5 36.9375 C-9.64308594 36.28072266 -9.78617188 35.62394531 -9.93359375 34.94726562 C-10.83700318 30.58078671 -11.34392372 26.48210266 -11 22 C-8.625 19.5625 -8.625 19.5625 -6 18 C-5.34 18 -4.68 18 -4 18 C-2.68 12.06 -1.36 6.12 0 0 Z " fill="#C0BEBE" transform="translate(160,232)"/>
<path d="M0 0 C-0.33 0.66 -0.66 1.32 -1 2 C-2.65 2 -4.3 2 -6 2 C-5.505 3.485 -5.505 3.485 -5 5 C-5.66386719 4.98839844 -6.32773438 4.97679687 -7.01171875 4.96484375 C-13.56306787 4.88106591 -13.56306787 4.88106591 -20 6 C-20 6.99 -20 7.98 -20 9 C-21.45817797 9.16802051 -22.9165484 9.33437143 -24.375 9.5 C-25.18710938 9.5928125 -25.99921875 9.685625 -26.8359375 9.78125 C-29 10 -29 10 -31 10 C-31.36398622 12.08164018 -31.71583287 14.16540562 -32.0625 16.25 C-32.25972656 17.41015625 -32.45695313 18.5703125 -32.66015625 19.765625 C-33.17407979 22.79626407 -33.17407979 22.79626407 -32.5 24.86328125 C-31.87854604 27.51902591 -32.08356684 29.70835475 -32.33984375 32.421875 C-32.43330078 33.44667969 -32.52675781 34.47148437 -32.62304688 35.52734375 C-32.72681641 36.59082031 -32.83058594 37.65429688 -32.9375 38.75 C-33.08735352 40.36841797 -33.08735352 40.36841797 -33.24023438 42.01953125 C-33.48747505 44.68031187 -33.74094708 47.34034775 -34 50 C-34.33 50 -34.66 50 -35 50 C-35.33 47.03 -35.66 44.06 -36 41 C-37.32 40.67 -38.64 40.34 -40 40 C-39.81824219 39.20303711 -39.63648438 38.40607422 -39.44921875 37.58496094 C-38.6283747 33.9742995 -37.81411659 30.36218399 -37 26.75 C-36.71382812 25.49574219 -36.42765625 24.24148438 -36.1328125 22.94921875 C-35.86210937 21.74394531 -35.59140625 20.53867187 -35.3125 19.296875 C-35.06113281 18.18666992 -34.80976563 17.07646484 -34.55078125 15.93261719 C-33.87694338 12.84210407 -33.87694338 12.84210407 -34 9 C-26.96291407 1.35099356 -9.73008201 -0.57235777 0 0 Z " fill="#DFDEDF" transform="translate(208,255)"/>
<path d="M0 0 C0.66 0 1.32 0 2 0 C2.33 0.66 2.66 1.32 3 2 C4.88263881 2.90343684 4.88263881 2.90343684 7.0625 3.625 C7.79597656 3.88539063 8.52945313 4.14578125 9.28515625 4.4140625 C9.85105469 4.60742188 10.41695312 4.80078125 11 5 C11 5.33 11 5.66 11 6 C10.2471875 6.09796875 9.494375 6.1959375 8.71875 6.296875 C-1.6809923 7.76091639 -11.76953584 10.12895152 -21.82421875 13.1484375 C-24.84785177 13.95920256 -26.15152158 14.13939137 -29 13 C-28.01 13 -27.02 13 -26 13 C-26 12.01 -26 11.02 -26 10 C-21.35150485 7.6007767 -17.08913926 7.80042591 -12 8 C-12 7.34 -12 6.68 -12 6 C-10.35 5.67 -8.7 5.34 -7 5 C-7.99 4.34 -8.98 3.68 -10 3 C-6.7 2.67 -3.4 2.34 0 2 C0 1.34 0 0.68 0 0 Z " fill="#D7D5D6" transform="translate(214,251)"/>
<path d="M0 0 C3 3 3 3 4 6 C3.61724606 8.56216631 3.170012 11.0358435 2.625 13.5625 C2.48578125 14.24763672 2.3465625 14.93277344 2.203125 15.63867188 C1.15022321 20.69955357 1.15022321 20.69955357 0 23 C-0.66 23 -1.32 23 -2 23 C-2.33 22.34 -2.66 21.68 -3 21 C-5.31 21.66 -7.62 22.32 -10 23 C-10 24.98 -10 26.96 -10 29 C-10.33 29 -10.66 29 -11 29 C-11.3125 25.75 -11.3125 25.75 -11 22 C-8.625 19.5625 -8.625 19.5625 -6 18 C-5.34 18 -4.68 18 -4 18 C-2.68 12.06 -1.36 6.12 0 0 Z " fill="#B5B2B3" transform="translate(160,232)"/>
<path d="M0 0 C1.43088528 2.86177057 0.59991697 4.93375773 0 8 C-0.66 8 -1.32 8 -2 8 C-2.185625 8.721875 -2.37125 9.44375 -2.5625 10.1875 C-4.32074227 13.62753922 -6.30024963 14.81933549 -9.5390625 16.7890625 C-10.02117187 17.18867188 -10.50328125 17.58828125 -11 18 C-11 18.99 -11 19.98 -11 21 C-9.68 21.33 -8.36 21.66 -7 22 C-7.33 22.66 -7.66 23.32 -8 24 C-10.64860427 24.59355614 -13.29197322 24.74209269 -16 25 C-17.125 20.25 -17.125 20.25 -16 18 C-15.34 18 -14.68 18 -14 18 C-14 17.34 -14 16.68 -14 16 C-13.195625 15.360625 -12.39125 14.72125 -11.5625 14.0625 C-8.76279268 12.18964068 -8.76279268 12.18964068 -8 9 C-7.34 9 -6.68 9 -6 9 C-6 8.34 -6 7.68 -6 7 C-5.34 7 -4.68 7 -4 7 C-3.71125 6.401875 -3.4225 5.80375 -3.125 5.1875 C-2 3 -2 3 0 0 Z " fill="#A09E9F" transform="translate(260,196)"/>
<path d="M0 0 C3.72498181 0.50143986 7.37437934 0.99982878 11 2 C11.7425 2.185625 12.485 2.37125 13.25 2.5625 C14.11625 2.7790625 14.11625 2.7790625 15 3 C9.58035895 5.68469636 5.19818448 6.47903368 -0.8125 6.625 C-6.06695804 6.57613342 -6.06695804 6.57613342 -11 8 C-12.54023996 8.06950541 -14.08334988 8.08452357 -15.625 8.0625 C-16.85089844 8.04896484 -16.85089844 8.04896484 -18.1015625 8.03515625 C-19.04128906 8.01775391 -19.04128906 8.01775391 -20 8 C-20 7.67 -20 7.34 -20 7 C-18.02 6.67 -16.04 6.34 -14 6 C-13.67 5.01 -13.34 4.02 -13 3 C-6.565 2.505 -6.565 2.505 0 2 C0 1.34 0 0.68 0 0 Z " fill="#B6B6B5" transform="translate(336,304)"/>
<path d="M0 0 C0.33 1.65 0.66 3.3 1 5 C-2.63 5 -6.26 5 -10 5 C-10 5.66 -10 6.32 -10 7 C-14.29 7 -18.58 7 -23 7 C-23.33 6.34 -23.66 5.68 -24 5 C-23.67 4.34 -23.34 3.68 -23 3 C-20.25878211 2.35256175 -17.58655488 1.82696572 -14.8125 1.375 C-14.05646484 1.2409375 -13.30042969 1.106875 -12.52148438 0.96875 C-8.2991268 0.25098583 -4.29966097 -0.1508653 0 0 Z " fill="#D5D4D3" transform="translate(263,185)"/>
<path d="M0 0 C0.33 0 0.66 0 1 0 C0.85764543 1.72945653 0.71095618 3.45855654 0.5625 5.1875 C0.48128906 6.15042969 0.40007812 7.11335937 0.31640625 8.10546875 C0.02333849 10.78649602 -0.42703754 13.3662986 -1 16 C-1.33 16 -1.66 16 -2 16 C-1.67 12.7 -1.34 9.4 -1 6 C-4.14815784 7.63026453 -4.14815784 7.63026453 -4.6159668 10.16723633 C-4.72593994 11.04661865 -4.83591309 11.92600098 -4.94921875 12.83203125 C-5.07490234 13.79560547 -5.20058594 14.75917969 -5.33007812 15.75195312 C-5.44802734 16.76193359 -5.56597656 17.77191406 -5.6875 18.8125 C-5.81705078 19.81087891 -5.94660156 20.80925781 -6.08007812 21.83789062 C-6.63678061 26.25910982 -7.07067232 30.53862202 -7 35 C-7.99 35 -8.98 35 -10 35 C-9.6369241 26.48682553 -9.25704812 17.96490451 -8.25 9.5 C-8.13140625 8.4790625 -8.0128125 7.458125 -7.890625 6.40625 C-7 4 -7 4 -4.421875 2.65625 C-3.22304688 2.33140625 -3.22304688 2.33140625 -2 2 C-1.67 2.33 -1.34 2.66 -1 3 C-0.67 2.01 -0.34 1.02 0 0 Z " fill="#A1A0A0" transform="translate(272,245)"/>
<path d="M0 0 C6 7.4 6 7.4 6 12 C1.34462607 12.83796731 -2.37078475 13.0161692 -7 12 C-7.33 11.01 -7.66 10.02 -8 9 C-9.32 8.34 -10.64 7.68 -12 7 C-8.7 7 -5.4 7 -2 7 C-2 5.68 -2 4.36 -2 3 C-1.34 3 -0.68 3 0 3 C0 2.01 0 1.02 0 0 Z " fill="#A2A19F" transform="translate(356,293)"/>
<path d="M0 0 C-3.96 0.99 -7.92 1.98 -12 3 C-11.34 4.32 -10.68 5.64 -10 7 C-8.824375 6.690625 -8.824375 6.690625 -7.625 6.375 C-6.325625 6.189375 -6.325625 6.189375 -5 6 C-4.34 6.66 -3.68 7.32 -3 8 C-5.06081361 8.50690584 -7.12373526 9.00524619 -9.1875 9.5 C-10.33605469 9.7784375 -11.48460937 10.056875 -12.66796875 10.34375 C-15.56818829 10.91495385 -18.06096385 11.13283779 -21 11 C-19.68 10.67 -18.36 10.34 -17 10 C-17.33 9.01 -17.66 8.02 -18 7 C-17.34 6.01 -16.68 5.02 -16 4 C-17.5159375 4.495 -17.5159375 4.495 -19.0625 5 C-22.75479911 6.07001321 -26.15248207 6.15704155 -30 6 C-26.54822587 3.69881725 -23.21961988 2.89006389 -19.25 1.9375 C-18.21359375 1.67743164 -18.21359375 1.67743164 -17.15625 1.41210938 C-5.64572462 -1.41143116 -5.64572462 -1.41143116 0 0 Z " fill="#969495" transform="translate(229,190)"/>
<path d="M0 0 C0.66 0 1.32 0 2 0 C1.86722656 1.07636719 1.73445313 2.15273437 1.59765625 3.26171875 C0.51531121 12.16702458 -0.40829467 21.04656406 -1 30 C-4 28 -4 28 -4.76953125 24.98828125 C-5.04610579 20.20213544 -4.48734469 15.896088 -3.6875 11.1875 C-3.55666016 10.32962891 -3.42582031 9.47175781 -3.29101562 8.58789062 C-2.26051457 2.26051457 -2.26051457 2.26051457 0 0 Z " fill="#D9D8D7" transform="translate(269,251)"/>
<path d="M0 0 C1.32 0 2.64 0 4 0 C3.46884894 4.51478398 1.63379708 7.34666857 -1 11 C-0.649375 11.495 -0.29875 11.99 0.0625 12.5 C1.46011601 16.22697603 0.65032859 19.09802848 0 23 C-0.33 21.68 -0.66 20.36 -1 19 C-1.99 19 -2.98 19 -4 19 C-4.33 16.03 -4.66 13.06 -5 10 C-5.99 9.67 -6.98 9.34 -8 9 C-6.38405168 6.95880212 -4.7143618 4.95927063 -3 3 C-2.34 3 -1.68 3 -1 3 C-0.67 2.01 -0.34 1.02 0 0 Z " fill="#8D8A89" transform="translate(236,278)"/>
<path d="M0 0 C2.31 0.33 4.62 0.66 7 1 C5.68 1.33 4.36 1.66 3 2 C0.81946021 15.0146683 -0.56728139 27.80954301 -1 41 C-1.33 41 -1.66 41 -2 41 C-2 33.08 -2 25.16 -2 17 C-2.33 17 -2.66 17 -3 17 C-2.22095672 5.47835991 -2.22095672 5.47835991 0 0 Z " fill="#8C8A8A" transform="translate(177,264)"/>
<path d="M0 0 C1.670625 0.061875 1.670625 0.061875 3.375 0.125 C2.5 4.875 2.5 4.875 1.375 7.125 C0.715 7.125 0.055 7.125 -0.625 7.125 C-0.955 9.765 -1.285 12.405 -1.625 15.125 C-3.275 14.795 -4.925 14.465 -6.625 14.125 C-6.51117347 12.16598546 -6.38358875 10.2077662 -6.25 8.25 C-6.18039063 7.15945312 -6.11078125 6.06890625 -6.0390625 4.9453125 C-5.39308749 0.54536952 -4.41005789 0.15207096 0 0 Z " fill="#C2BFBF" transform="translate(183.625,166.875)"/>
<path d="M0 0 C0.66 0.33 1.32 0.66 2 1 C2.85056945 4.55692677 3.16909807 6.49270578 2 10 C2.99 10 3.98 10 5 10 C5.125 16.75 5.125 16.75 4 19 C3.34 19 2.68 19 2 19 C1.67 19.66 1.34 20.32 1 21 C1 19.35 1 17.7 1 16 C1.66 16 2.32 16 3 16 C3 15.34 3 14.68 3 14 C1.68 14.33 0.36 14.66 -1 15 C-1.33 14.34 -1.66 13.68 -2 13 C-2.99 12.67 -3.98 12.34 -5 12 C-3.68 10.35 -2.36 8.7 -1 7 C-1.99 7.33 -2.98 7.66 -4 8 C-4 6.66666667 -4 5.33333333 -4 4 C-4.66 3.67 -5.32 3.34 -6 3 C-4.03533587 1.93224776 -2.03144641 0.93446535 0 0 Z " fill="#BFBFBD" transform="translate(230,287)"/>
<path d="M0 0 C-0.33 0.66 -0.66 1.32 -1 2 C-2.65 2 -4.3 2 -6 2 C-5.67 2.99 -5.34 3.98 -5 5 C-5.61746094 4.96519531 -6.23492187 4.93039062 -6.87109375 4.89453125 C-12.47806109 4.71531312 -16.77717217 5.35367938 -22.015625 7.33203125 C-24.40733188 8.13711369 -26.49473071 8.24244542 -29 8 C-22.67506896 0.67639564 -9.12011557 -0.53647739 0 0 Z " fill="#ECEBEC" transform="translate(208,255)"/>
<path d="M0 0 C0 0.99 0 1.98 0 3 C0.66 3 1.32 3 2 3 C2 3.66 2 4.32 2 5 C-2.95 5.66 -7.9 6.32 -13 7 C-13 4 -13 4 -12 1 C-10.0390625 0.234375 -10.0390625 0.234375 -7.625 -0.25 C-6.83351562 -0.42015625 -6.04203125 -0.5903125 -5.2265625 -0.765625 C-3 -1 -3 -1 0 0 Z " fill="#D3D3D2" transform="translate(229,191)"/>
<path d="M0 0 C4.07915983 3.35073843 6.7555237 7.87780771 8 13 C7.04069122 15.67443659 6.02208391 16.97791609 4 19 C3.01 19 2.02 19 1 19 C1.33 17.35 1.66 15.7 2 14 C1.01 13.67 0.02 13.34 -1 13 C-0.01 12.67 0.98 12.34 2 12 C2 10.02 2 8.04 2 6 C1.34 5.67 0.68 5.34 0 5 C0 3.35 0 1.7 0 0 Z " fill="#A9A8A7" transform="translate(224,237)"/>
<path d="M0 0 C3.63 0 7.26 0 11 0 C11 1.32 11 2.64 11 4 C13.97 4.33 16.94 4.66 20 5 C20 5.33 20 5.66 20 6 C12.2723068 6.31806054 6.06075526 6.32270836 -1 3 C-0.67 2.01 -0.34 1.02 0 0 Z " fill="#A2A1A1" transform="translate(173,329)"/>
<path d="M0 0 C1.03647521 3.30312756 0.98440578 5.9886447 0.66015625 9.421875 C0.56669922 10.44667969 0.47324219 11.47148437 0.37695312 12.52734375 C0.27318359 13.59082031 0.16941406 14.65429688 0.0625 15.75 C-0.03740234 16.82894531 -0.13730469 17.90789062 -0.24023438 19.01953125 C-0.48747505 21.68031187 -0.74094708 24.34034775 -1 27 C-1.33 27 -1.66 27 -2 27 C-2.33 24.03 -2.66 21.06 -3 18 C-4.32 17.67 -5.64 17.34 -7 17 C-6.34 16.34 -5.68 15.68 -5 15 C-4.34 15.33 -3.68 15.66 -3 16 C-2.95101562 15.01257813 -2.90203125 14.02515625 -2.8515625 13.0078125 C-2.77679688 11.72648437 -2.70203125 10.44515625 -2.625 9.125 C-2.55539063 7.84882813 -2.48578125 6.57265625 -2.4140625 5.2578125 C-2 2 -2 2 0 0 Z " fill="#D9D8D7" transform="translate(175,278)"/>
<path d="M0 0 C-1 2 -1 2 -4.16796875 3.0703125 C-5.50555203 3.43037978 -6.84555056 3.7815627 -8.1875 4.125 C-8.84814453 4.30675781 -9.50878906 4.48851562 -10.18945312 4.67578125 C-14.21570029 5.73301891 -17.84411097 6.1938984 -22 6 C-22 5.34 -22 4.68 -22 4 C-7.40318907 -0.59225513 -7.40318907 -0.59225513 0 0 Z " fill="#E2E2E2" transform="translate(203,241)"/>
<path d="M0 0 C1.88372214 3.17596839 2.20001885 5.31969081 1.9765625 8.984375 C1.925 9.91894531 1.8734375 10.85351562 1.8203125 11.81640625 C1.75585938 12.78449219 1.69140625 13.75257813 1.625 14.75 C1.56828125 15.73355469 1.5115625 16.71710938 1.453125 17.73046875 C1.31192448 20.154411 1.16054205 22.57727459 1 25 C0.01 25 -0.98 25 -2 25 C-1.85803484 22.14559413 -1.71154174 19.29153804 -1.5625 16.4375 C-1.52318359 15.63763672 -1.48386719 14.83777344 -1.44335938 14.01367188 C-1.19251844 9.28628494 -0.74678186 4.67523099 0 0 Z " fill="#B0B0AE" transform="translate(264,255)"/>
<path d="M0 0 C0.66 0 1.32 0 2 0 C2.5441981 5.98617905 -0.30732701 10.8217827 -3 16 C-4.51953125 14.79296875 -4.51953125 14.79296875 -6 13 C-6.07421875 10.73828125 -6.07421875 10.73828125 -5.6875 8.3125 C-5.56761719 7.50425781 -5.44773438 6.69601563 -5.32421875 5.86328125 C-5.21722656 5.24839844 -5.11023438 4.63351563 -5 4 C-4.01 4.33 -3.02 4.66 -2 5 C-1.34 3.35 -0.68 1.7 0 0 Z " fill="#ACABAB" transform="translate(171,208)"/>
<path d="M0 0 C0.33 0 0.66 0 1 0 C0.49945871 11.34828502 -0.0130599 22.6816869 -1 34 C-1.33 34 -1.66 34 -2 34 C-2.33 30.37 -2.66 26.74 -3 23 C-3.66 23.66 -4.32 24.32 -5 25 C-5.66 24.67 -6.32 24.34 -7 24 C-7 23.34 -7 22.68 -7 22 C-4 20 -4 20 -1 20 C-1.01160156 19.14277344 -1.02320313 18.28554688 -1.03515625 17.40234375 C-1.0818041 11.49139448 -1.08249916 5.81843296 0 0 Z " fill="#8F8D8D" transform="translate(269,261)"/>
<path d="M0 0 C-2.34461362 2.61278838 -4.75113955 4.10657974 -7.875 5.6875 C-8.71804687 6.12449219 -9.56109375 6.56148438 -10.4296875 7.01171875 C-13.1512191 8.05814351 -15.11197924 8.19149958 -18 8 C-17.401875 7.566875 -16.80375 7.13375 -16.1875 6.6875 C-14.03305374 5.11167282 -14.03305374 5.11167282 -12.5 3.4375 C-8.64526816 -0.25661802 -5.22150681 -0.20082719 0 0 Z " fill="#9B999A" transform="translate(211,326)"/>
<path d="M0 0 C1.79244141 0.00676758 1.79244141 0.00676758 3.62109375 0.01367188 C6.53911647 0.02534397 9.45703037 0.04171674 12.375 0.0625 C12.375 0.3925 12.375 0.7225 12.375 1.0625 C4.125 1.0625 -4.125 1.0625 -12.625 1.0625 C-12.955 2.3825 -13.285 3.7025 -13.625 5.0625 C-14.615 5.3925 -15.605 5.7225 -16.625 6.0625 C-16.955 5.0725 -17.285 4.0825 -17.625 3.0625 C-20.595 2.5675 -20.595 2.5675 -23.625 2.0625 C-23.625 1.7325 -23.625 1.4025 -23.625 1.0625 C-15.73349953 0.06224837 -7.94697932 -0.05758681 0 0 Z " fill="#716F6D" transform="translate(330.625,287.9375)"/>
<path d="M0 0 C0.66 0 1.32 0 2 0 C1.8864371 1.64666203 1.75882619 3.29236082 1.625 4.9375 C1.55539062 5.85402344 1.48578125 6.77054687 1.4140625 7.71484375 C1.27742188 8.46894531 1.14078125 9.22304688 1 10 C0.01 10.495 0.01 10.495 -1 11 C-1 12.65 -1 14.3 -1 16 C-1.99 16 -2.98 16 -4 16 C-3.71861942 13.70704764 -3.4245814 11.41564544 -3.125 9.125 C-2.96257812 7.84882813 -2.80015625 6.57265625 -2.6328125 5.2578125 C-2 2 -2 2 0 0 Z " fill="#D4D3D3" transform="translate(269,251)"/>
<path d="M0 0 C1.98 0.495 1.98 0.495 4 1 C3.67 6.94 3.34 12.88 3 19 C2.34 19 1.68 19 1 19 C1 15.7 1 12.4 1 9 C0.34 8.67 -0.32 8.34 -1 8 C-0.67 5.36 -0.34 2.72 0 0 Z " fill="#E1DFE0" transform="translate(152,277)"/>
<path d="M0 0 C0.66 0 1.32 0 2 0 C2.33 0.66 2.66 1.32 3 2 C4.88263881 2.90343684 4.88263881 2.90343684 7.0625 3.625 C7.79597656 3.88539063 8.52945313 4.14578125 9.28515625 4.4140625 C10.13400391 4.70410156 10.13400391 4.70410156 11 5 C11 5.33 11 5.66 11 6 C10.154375 6.12117188 9.30875 6.24234375 8.4375 6.3671875 C2.18510375 7.29083695 -3.90420377 8.32664417 -10 10 C-10 9.34 -10 8.68 -10 8 C-5.126739 6.4087311 -1.19209404 5.78807779 4 6 C4 5.34 4 4.68 4 4 C2.68 4 1.36 4 0 4 C0 2.68 0 1.36 0 0 Z " fill="#838181" transform="translate(214,251)"/>
<path d="M0 0 C1.43088528 2.86177057 0.59991697 4.93375773 0 8 C-0.66 8 -1.32 8 -2 8 C-2.268125 8.78375 -2.53625 9.5675 -2.8125 10.375 C-4 13 -4 13 -7 15 C-7.125 9.25 -7.125 9.25 -6 7 C-5.34 7 -4.68 7 -4 7 C-3.71125 6.401875 -3.4225 5.80375 -3.125 5.1875 C-2 3 -2 3 0 0 Z " fill="#C8C6C6" transform="translate(260,196)"/>
<path d="M0 0 C7.92 0 15.84 0 24 0 C24 0.33 24 0.66 24 1 C22.35 1.33 20.7 1.66 19 2 C19.33 2.66 19.66 3.32 20 4 C17.03 4 14.06 4 11 4 C11 3.34 11 2.68 11 2 C7.37 1.67 3.74 1.34 0 1 C0 0.67 0 0.34 0 0 Z " fill="#DEDCDB" transform="translate(318,289)"/>
<path d="M0 0 C0.33 0 0.66 0 1 0 C1 1.65 1 3.3 1 5 C1.66 5 2.32 5 3 5 C3.33 5.99 3.66 6.98 4 8 C5.65 7.67 7.3 7.34 9 7 C7 10 7 10 6 11 C8.31 11 10.62 11 13 11 C9.52957297 13.31361802 8.08165827 13.51020728 4 13 C0.96175657 10.59035866 0.74026634 7.92069764 0.3125 4.25 C0.19604647 2.83429039 0.08785338 1.41777182 0 0 Z " fill="#807F7F" transform="translate(153,202)"/>
<path d="M0 0 C2.2477975 2.05233685 3.0022242 3.00667261 4 6 C3.54451823 8.73812607 2.74685247 11.3201176 2 14 C1.34 13.67 0.68 13.34 0 13 C0 11.68 0 10.36 0 9 C-0.99 12.465 -0.99 12.465 -2 16 C-3.3805087 12.23331402 -2.59568159 9.55210827 -1.5625 5.75 C-1.27503906 4.67234375 -0.98757812 3.5946875 -0.69140625 2.484375 C-0.46324219 1.66453125 -0.23507813 0.8446875 0 0 Z " fill="#928F90" transform="translate(160,232)"/>
<path d="M0 0 C3.24271506 0.5590888 4.93057424 1.4132178 7 4 C7 4.66 7 5.32 7 6 C7.99 5.67 8.98 5.34 10 5 C11.39439664 4.93334624 12.79169875 4.91461801 14.1875 4.9375 C16.0746875 4.9684375 16.0746875 4.9684375 18 5 C17.071875 5.12375 17.071875 5.12375 16.125 5.25 C13.81562433 5.81258459 13.81562433 5.81258459 12.75 8.0625 C12.5025 8.701875 12.255 9.34125 12 10 C11.67 9.34 11.34 8.68 11 8 C9.7625 7.7525 9.7625 7.7525 8.5 7.5 C7.675 7.335 6.85 7.17 6 7 C5.67 6.34 5.34 5.68 5 5 C2.47266765 4.34444881 2.47266765 4.34444881 0 4 C0.66 3.67 1.32 3.34 2 3 C2 2.34 2 1.68 2 1 C1.34 0.67 0.68 0.34 0 0 Z " fill="#7E7C7D" transform="translate(193,170)"/>
<path d="M0 0 C-0.33 1.65 -0.66 3.3 -1 5 C-2.0725 5.12375 -3.145 5.2475 -4.25 5.375 C-7.84683029 5.7855624 -7.84683029 5.7855624 -10.25 7.125 C-10.8275 7.41375 -11.405 7.7025 -12 8 C-12.99 7.67 -13.98 7.34 -15 7 C-13.06730041 5.82539808 -11.12866687 4.66055528 -9.1875 3.5 C-8.10855469 2.8503125 -7.02960938 2.200625 -5.91796875 1.53125 C-3 0 -3 0 0 0 Z " fill="#E4E2E2" transform="translate(212,321)"/>
<path d="M0 0 C0.66 0 1.32 0 2 0 C1.98259766 1.08667969 1.98259766 1.08667969 1.96484375 2.1953125 C1.91768689 7.24783323 1.92622436 12.03378767 3 17 C0.27352315 14.64531545 -0.98756342 12.4591583 -2 9 C-1.6875 7 -1.6875 7 -1 5 C-0.65939189 3.33480481 -0.32441604 1.66842534 0 0 Z " fill="#9C999B" transform="translate(153,299)"/>
<path d="M0 0 C1.65 0.33 3.3 0.66 5 1 C5.125 7.75 5.125 7.75 4 10 C3.34 10 2.68 10 2 10 C1.67 10.66 1.34 11.32 1 12 C1 10.35 1 8.7 1 7 C1.66 7 2.32 7 3 7 C3 6.34 3 5.68 3 5 C1.68 5.33 0.36 5.66 -1 6 C-0.67 4.02 -0.34 2.04 0 0 Z " fill="#B9B7B7" transform="translate(230,296)"/>
<path d="M0 0 C1.32 0.66 2.64 1.32 4 2 C0.7 4.31 -2.6 6.62 -6 9 C-6.33 8.01 -6.66 7.02 -7 6 C-2.25 1.125 -2.25 1.125 0 0 Z " fill="#B0B0AE" transform="translate(218,317)"/>
<path d="M0 0 C0.33 0 0.66 0 1 0 C1.2475 0.94875 1.495 1.8975 1.75 2.875 C2.6857077 6.08693191 2.6857077 6.08693191 5.125 7.375 C5.74375 7.58125 6.3625 7.7875 7 8 C6.67 8.66 6.34 9.32 6 10 C6.89363605 12.60931266 6.89363605 12.60931266 8 15 C3.15544041 12.35751295 3.15544041 12.35751295 1 10 C0.10114344 6.65482361 -0.04694059 3.45348614 0 0 Z " fill="#888887" transform="translate(244,289)"/>
<path d="M0 0 C0.33 0 0.66 0 1 0 C1 2.97 1 5.94 1 9 C0.34 9 -0.32 9 -1 9 C-1.33 9.99 -1.66 10.98 -2 12 C-2.66 12.66 -3.32 13.32 -4 14 C-4 11.03 -4 8.06 -4 5 C-3.34 5 -2.68 5 -2 5 C-1.34 3.35 -0.68 1.7 0 0 Z " fill="#AAA8A8" transform="translate(156,262)"/>
<path d="M0 0 C-4.10542266 2.29903669 -8.69099505 4.35523153 -13.4375 3.625 C-13.953125 3.41875 -14.46875 3.2125 -15 3 C-14.01 3 -13.02 3 -12 3 C-12 2.01 -12 1.02 -12 0 C-7.44729118 -2.48329572 -4.775353 -1.68541871 0 0 Z " fill="#A5A4A5" transform="translate(200,261)"/>
<path d="M0 0 C0.33 1.32 0.66 2.64 1 4 C-3.95 4 -8.9 4 -14 4 C-13 2 -13 2 -9.8125 0.875 C-6.36250398 0.08319763 -3.515707 -0.1714979 0 0 Z " fill="#E8E7E7" transform="translate(263,185)"/>
<path d="M0 0 C0.78375 0.04125 1.5675 0.0825 2.375 0.125 C2.705 1.115 3.035 2.105 3.375 3.125 C2.0446875 3.558125 2.0446875 3.558125 0.6875 4 C-4.86711394 5.41680682 -4.86711394 5.41680682 -8.625 9.125 C-8.625 8.135 -8.625 7.145 -8.625 6.125 C-7.965 6.125 -7.305 6.125 -6.625 6.125 C-6.33625 5.50625 -6.0475 4.8875 -5.75 4.25 C-4.16515329 1.25640067 -3.47581022 0.16551477 0 0 Z " fill="#B0ACAA" transform="translate(284.625,159.875)"/>
<path d="M0 0 C1.32 0 2.64 0 4 0 C3.5206753 4.31392226 2.2542015 6.16569547 -1 9 C-1.80967438 6.08517222 -2.21845993 4.53886783 -1.0625 1.6875 C-0.711875 1.130625 -0.36125 0.57375 0 0 Z " fill="#9E9A9A" transform="translate(236,278)"/>
<path d="M0 0 C0.66 0 1.32 0 2 0 C2 0.99 2 1.98 2 3 C3.98 3.66 5.96 4.32 8 5 C8.33 6.65 8.66 8.3 9 10 C6.00779732 8.63629701 3.70973471 7.05091917 1.25 4.875 C0.63640625 4.33617187 0.0228125 3.79734375 -0.609375 3.2421875 C-1.06828125 2.83226562 -1.5271875 2.42234375 -2 2 C-1.34 1.34 -0.68 0.68 0 0 Z " fill="#9B9A99" transform="translate(162,320)"/>
<path d="M0 0 C1.32 0.99 2.64 1.98 4 3 C3.125 7.875 3.125 7.875 2 9 C0.00041636 9.04080783 -2.00045254 9.04254356 -4 9 C-2.68 8.34 -1.36 7.68 0 7 C-0.2784375 5.824375 -0.2784375 5.824375 -0.5625 4.625 C-1 2 -1 2 0 0 Z " fill="#C2BFBD" transform="translate(252,299)"/>
<path d="M0 0 C-0.33 0.99 -0.66 1.98 -1 3 C-1 2.34 -1 1.68 -1 1 C-1.66 1 -2.32 1 -3 1 C-2.67 2.65 -2.34 4.3 -2 6 C-3.32 6 -4.64 6 -6 6 C-6.33 5.01 -6.66 4.02 -7 3 C-8.65 2.67 -10.3 2.34 -12 2 C-12 1.67 -12 1.34 -12 1 C-7.93631321 0.22596442 -4.13574827 -0.0984702 0 0 Z " fill="#A4A2A2" transform="translate(214,235)"/>
<path d="M0 0 C0.66 0 1.32 0 2 0 C1.649375 0.598125 1.29875 1.19625 0.9375 1.8125 C-0.33304698 4.10813214 -0.33304698 4.10813214 1 7 C0.0925 7.12375 -0.815 7.2475 -1.75 7.375 C-4.58970323 7.92109677 -6.52590591 8.57263803 -9 10 C-8.25 8.0625 -8.25 8.0625 -7 6 C-4.875 5.25 -4.875 5.25 -3 5 C-3 4.34 -3 3.68 -3 3 C-2.34 3 -1.68 3 -1 3 C-0.67 2.01 -0.34 1.02 0 0 Z " fill="#E5E4E4" transform="translate(221,311)"/>
<path d="M0 0 C-3.6826108 2.14818964 -7.78741809 3.40314548 -12 4 C-12.99 3.67 -13.98 3.34 -15 3 C-15 2.34 -15 1.68 -15 1 C-9.4584498 -0.96263236 -5.79141983 -1.01603857 0 0 Z " fill="#BEBEBE" transform="translate(333,305)"/>
<path d="M0 0 C0.66 0.33 1.32 0.66 2 1 C1.67 1.99 1.34 2.98 1 4 C0.01 4 -0.98 4 -2 4 C-2.66 5.65 -3.32 7.3 -4 9 C-4.33 8.34 -4.66 7.68 -5 7 C-5.99 7.33 -6.98 7.66 -8 8 C-8 7.34 -8 6.68 -8 6 C-7.34 6 -6.68 6 -6 6 C-6 5.34 -6 4.68 -6 4 C-4.36368108 2.95107762 -2.69514137 1.95093297 -1 1 C-0.67 0.67 -0.34 0.34 0 0 Z " fill="#9E9D9B" transform="translate(241,311)"/>
<path d="M0 0 C0.99 0.33 1.98 0.66 3 1 C3.80967438 3.91482778 4.21845993 5.46113217 3.0625 8.3125 C2.5365625 9.1478125 2.5365625 9.1478125 2 10 C2 8.68 2 7.36 2 6 C1.01 6 0.02 6 -1 6 C-0.67 4.02 -0.34 2.04 0 0 Z " fill="#A29C9D" transform="translate(233,291)"/>
<path d="M0 0 C0.33 0 0.66 0 1 0 C1.33 3.96 1.66 7.92 2 12 C1.01 12.495 1.01 12.495 0 13 C0 12.01 0 11.02 0 10 C-0.99 10.33 -1.98 10.66 -3 11 C-2.690625 9.9275 -2.38125 8.855 -2.0625 7.75 C-1.33187904 5.17133778 -0.62517096 2.60487898 0 0 Z " fill="#A3A2A0" transform="translate(164,221)"/>
<path d="M0 0 C0.33 0 0.66 0 1 0 C1.33 3.3 1.66 6.6 2 10 C2.66 10 3.32 10 4 10 C4 10.99 4 11.98 4 13 C2.35 12.67 0.7 12.34 -1 12 C-0.67 8.04 -0.34 4.08 0 0 Z " fill="#9A9897" transform="translate(178,169)"/>
<path d="M0 0 C0.33 0.66 0.66 1.32 1 2 C0.0625 4.125 0.0625 4.125 -1 6 C-1.66 6 -2.32 6 -3 6 C-3.33 6.66 -3.66 7.32 -4 8 C-4 7.34 -4 6.68 -4 6 C-4.99 5.67 -5.98 5.34 -7 5 C-4.63707344 2.47411298 -3.33537489 1.11179163 0 0 Z " fill="#BBB9BA" transform="translate(160,189)"/>
<path d="M0 0 C0 0.66 0 1.32 0 2 C-2.10149011 2.38971999 -4.2063482 2.76131477 -6.3125 3.125 C-7.48425781 3.33382812 -8.65601563 3.54265625 -9.86328125 3.7578125 C-13 4 -13 4 -16 2 C-14.08404518 1.66259915 -12.16720278 1.33023588 -10.25 1 C-9.18265625 0.814375 -8.1153125 0.62875 -7.015625 0.4375 C-4 0 -4 0 0 0 Z " fill="#B8B9B9" transform="translate(243,186)"/>
<path d="M0 0 C0.33 0 0.66 0 1 0 C0.67 3.63 0.34 7.26 0 11 C-0.99 10.67 -1.98 10.34 -3 10 C-2.25 2.25 -2.25 2.25 0 0 Z " fill="#E2E2E2" transform="translate(172,283)"/>
<path d="M0 0 C1 3 1 3 0 6 C-1.9375 5.6875 -1.9375 5.6875 -4 5 C-4.33 4.01 -4.66 3.02 -5 2 C-3.35 1.34 -1.7 0.68 0 0 Z M-7 3 C-6.01 3.495 -6.01 3.495 -5 4 C-5.66 5.32 -6.32 6.64 -7 8 C-7 6.35 -7 4.7 -7 3 Z " fill="#D9D7D8" transform="translate(157,252)"/>
<path d="M0 0 C0.99 0 1.98 0 3 0 C2.40049704 3.68266103 1.75241109 7.34543185 1 11 C0.01 11 -0.98 11 -2 11 C-1.34 7.37 -0.68 3.74 0 0 Z " fill="#A4A3A4" transform="translate(255,215)"/>
<path d="M0 0 C0.33 0 0.66 0 1 0 C1.46192125 4.92715996 -0.1724717 8.50732625 -2 13 C-2.66 13 -3.32 13 -4 13 C-3.52511102 11.01980257 -3.04497141 9.04086365 -2.5625 7.0625 C-2.29566406 5.96035156 -2.02882812 4.85820312 -1.75390625 3.72265625 C-1 1 -1 1 0 0 Z " fill="#B5B5B5" transform="translate(174,232)"/>
<path d="M0 0 C0.99 0.33 1.98 0.66 3 1 C2 4 2 4 0.25 5.1875 C-2.29960574 6.10819096 -4.30923081 6.14948718 -7 6 C-6.401875 5.566875 -5.80375 5.13375 -5.1875 4.6875 C-3.29216913 3.22538761 -1.6471407 1.72949773 0 0 Z " fill="#918E8B" transform="translate(200,328)"/>
<path d="M0 0 C1.73745313 2.65728125 2.00831972 3.89600355 1.75 7.125 C1 10 1 10 -1 12 C-1.02698189 10.37509046 -1.04638757 8.75005367 -1.0625 7.125 C-1.07410156 6.22007812 -1.08570313 5.31515625 -1.09765625 4.3828125 C-1 2 -1 2 0 0 Z " fill="#C7C6C5" transform="translate(166,219)"/>
<path d="M0 0 C0.99 0 1.98 0 3 0 C3.24042276 4.08718695 2.42258812 7.17679443 1 11 C0.34 10.67 -0.32 10.34 -1 10 C-0.67 6.7 -0.34 3.4 0 0 Z " fill="#C5C5C5" transform="translate(252,217)"/>
<path d="M0 0 C2.97 0.495 2.97 0.495 6 1 C5.38125 1.165 4.7625 1.33 4.125 1.5 C0.72243051 3.90181375 0.77387974 7.00162134 0 11 C-0.33 11 -0.66 11 -1 11 C-1.33 8.69 -1.66 6.38 -2 4 C-1.34 4 -0.68 4 0 4 C0 2.68 0 1.36 0 0 Z " fill="#7D7C7A" transform="translate(195,202)"/>
<path d="M0 0 C1.79093191 -0.08086147 3.58289628 -0.13912702 5.375 -0.1875 C6.87160156 -0.23970703 6.87160156 -0.23970703 8.3984375 -0.29296875 C9.25695312 -0.19628906 10.11546875 -0.09960938 11 0 C11.66 0.99 12.32 1.98 13 3 C11.35 3.33 9.7 3.66 8 4 C8 3.34 8 2.68 8 2 C5.36 1.67 2.72 1.34 0 1 C0 0.67 0 0.34 0 0 Z " fill="#BBBBBA" transform="translate(344,300)"/>
<path d="M0 0 C0.99 0 1.98 0 3 0 C3.33 0.99 3.66 1.98 4 3 C3.01 3.495 3.01 3.495 2 4 C2 5.65 2 7.3 2 9 C1.01 9 0.02 9 -1 9 C-0.67 6.03 -0.34 3.06 0 0 Z " fill="#C9C8C6" transform="translate(266,258)"/>
<path d="M0 0 C0.66 0 1.32 0 2 0 C1.8864371 1.64666203 1.75882619 3.29236082 1.625 4.9375 C1.52058594 6.31228516 1.52058594 6.31228516 1.4140625 7.71484375 C1.27742188 8.46894531 1.14078125 9.22304688 1 10 C0.01 10.495 0.01 10.495 -1 11 C-1.02688151 9.35425434 -1.04634123 7.70838587 -1.0625 6.0625 C-1.07410156 5.14597656 -1.08570313 4.22945312 -1.09765625 3.28515625 C-1 1 -1 1 0 0 Z " fill="#AAAAAA" transform="translate(266,248)"/>
<path d="M0 0 C-3.85905949 1.92952974 -6.26132535 3.12483821 -10.625 3.0625 C-11.85089844 3.04896484 -11.85089844 3.04896484 -13.1015625 3.03515625 C-14.04128906 3.01775391 -14.04128906 3.01775391 -15 3 C-15 2.67 -15 2.34 -15 2 C-9.77487721 0.53329887 -5.4185766 -0.22577402 0 0 Z " fill="#747474" transform="translate(331,309)"/>
<path d="M0 0 C2.375 0.25 2.375 0.25 5 1 C6.3125 3.0625 6.3125 3.0625 7 5 C5.02 5 3.04 5 1 5 C0.67 3.35 0.34 1.7 0 0 Z " fill="#C5C3C3" transform="translate(344,301)"/>
<path d="M0 0 C1.65 0 3.3 0 5 0 C4.01 0.495 4.01 0.495 3 1 C3 1.66 3 2.32 3 3 C4.65 2.67 6.3 2.34 8 2 C7.01 3.485 7.01 3.485 6 5 C3.03 4.505 3.03 4.505 0 4 C0 2.68 0 1.36 0 0 Z " fill="#9F9D9E" transform="translate(349,301)"/>
<path d="M0 0 C3.63 0 7.26 0 11 0 C10.67 1.32 10.34 2.64 10 4 C9.01 4.33 8.02 4.66 7 5 C6.67 4.01 6.34 3.02 6 2 C3.03 1.505 3.03 1.505 0 1 C0 0.67 0 0.34 0 0 Z " fill="#898987" transform="translate(307,289)"/>
<path d="M0 0 C1.60725635 3.21451269 1.05748185 6.43612536 1 10 C0.01 10 -0.98 10 -2 10 C-1.85950482 8.52031676 -1.71245174 7.04125484 -1.5625 5.5625 C-1.48128906 4.73878906 -1.40007812 3.91507812 -1.31640625 3.06640625 C-1 1 -1 1 0 0 Z " fill="#BABABA" transform="translate(264,270)"/>
<path d="M0 0 C0.99 0.33 1.98 0.66 3 1 C1.02 5.455 1.02 5.455 -1 10 C-1.33 10 -1.66 10 -2 10 C-2.125 6.625 -2.125 6.625 -2 3 C-1.34 2.34 -0.68 1.68 0 1 C0 0.67 0 0.34 0 0 Z " fill="#A8A7A7" transform="translate(290,187)"/>
<path d="M0 0 C0.99 0.33 1.98 0.66 3 1 C3 1.99 3 2.98 3 4 C1.02 4.33 -0.96 4.66 -3 5 C-2.67 4.01 -2.34 3.02 -2 2 C-1.34 2 -0.68 2 0 2 C0 1.34 0 0.68 0 0 Z " fill="#CAC9C9" transform="translate(359,301)"/>
<path d="M0 0 C1 2 1 2 0.375 4.5 C-1 7 -1 7 -3.625 8.3125 C-4.40875 8.539375 -5.1925 8.76625 -6 9 C-6 8.34 -6 7.68 -6 7 C-5.34 7 -4.68 7 -4 7 C-3.71125 6.401875 -3.4225 5.80375 -3.125 5.1875 C-2 3 -2 3 0 0 Z " fill="#878383" transform="translate(260,196)"/>
<path d="M0 0 C0 0.99 0 1.98 0 3 C-2.31 3.33 -4.62 3.66 -7 4 C-7.33 3.34 -7.66 2.68 -8 2 C-2.25 0 -2.25 0 0 0 Z " fill="#D7D5D6" transform="translate(188,261)"/>
<path d="M0 0 C0.99 0 1.98 0 3 0 C2.67 1.32 2.34 2.64 2 4 C0.68 4.33 -0.64 4.66 -2 5 C-1.125 1.125 -1.125 1.125 0 0 Z " fill="#AAAAA8" transform="translate(227,251)"/>
<path d="M0 0 C2.31 0.33 4.62 0.66 7 1 C6.34 2.32 5.68 3.64 5 5 C4.01 4.67 3.02 4.34 2 4 C2 3.34 2 2.68 2 2 C1.34 1.34 0.68 0.68 0 0 Z " fill="#8F8E8E" transform="translate(344,289)"/>
<path d="M0 0 C1.65 0.33 3.3 0.66 5 1 C3.68 1.33 2.36 1.66 1 2 C0.67 4.31 0.34 6.62 0 9 C-0.33 9 -0.66 9 -1 9 C-1.625 6.1875 -1.625 6.1875 -2 3 C-1.34 2.01 -0.68 1.02 0 0 Z " fill="#918F90" transform="translate(179,264)"/>
<path d="M0 0 C1.76462683 3.08809695 2 4.23312136 2 8 C0.68 7.34 -0.64 6.68 -2 6 C-2 5.34 -2 4.68 -2 4 C-1.34 4 -0.68 4 0 4 C0 2.68 0 1.36 0 0 Z " fill="#8D8C89" transform="translate(229,245)"/>
<path d="M0 0 C1.09658936 3.28976808 0.79953138 4.71303767 0 8 C-0.99 8 -1.98 8 -3 8 C-2.45276317 4.62537285 -1.9451 2.91765 0 0 Z " fill="#D9D4D4" transform="translate(269,183)"/>
<path d="M0 0 C2.64 0 5.28 0 8 0 C7.38125 0.0825 6.7625 0.165 6.125 0.25 C3.81562433 0.81258459 3.81562433 0.81258459 2.75 3.0625 C2.5025 3.701875 2.255 4.34125 2 5 C1.34 3.35 0.68 1.7 0 0 Z " fill="#9D9999" transform="translate(203,175)"/>
</svg>
